<svg xmlns="http://www.w3.org/2000/svg" xmlns:xlink="http://www.w3.org/1999/xlink" xmlns:xodm="http://www.corel.com/coreldraw/odm/2003" xml:space="preserve" width="1000px" height="175px" style="shape-rendering:geometricPrecision; text-rendering:geometricPrecision; image-rendering:optimizeQuality; fill-rule:evenodd; clip-rule:evenodd" viewBox="0 0 1000 175"> <defs>  <style type="text/css">       .fil0 {fill:white;fill-rule:nonzero}     </style> </defs> <g id="Layer_x0020_1">  <metadata id="CorelCorpID_0Corel-Layer"></metadata>  <g id="_2439965444336">   <path class="fil0" d="M0 175.253l0 -174.754 26.585 0 72.983 100.86 -11.032 -0.253 73.238 -100.607 26.086 0 0 174.754 -27.088 0 0 -73.147c0,-14.312 0.337,-27.498 1.002,-39.565 0.666,-12.069 2.009,-24.261 4.013,-36.578l3.015 9.987 -66.97 89.124 -16.559 0 -65.963 -88.874 2.759 -10.237c2.008,11.986 3.34,23.964 4.013,35.951 0.669,11.983 1.005,25.379 1.005,40.192l0 73.147 -27.087 0z"></path>   <path class="fil0" d="M274.142 133.31l10.281 -25.963 93.556 0 7.527 25.963 -111.364 0zm-34.115 41.944l77.754 -174.753 29.848 0 77.502 174.753 -29.344 0 -50.666 -113.843c-1.173,-2.161 -2.467,-5.072 -3.888,-8.735 -1.423,-3.659 -2.929,-7.529 -4.515,-11.608 -1.59,-4.078 -3.093,-8.072 -4.512,-11.981 -1.424,-3.915 -2.638,-7.282 -3.636,-10.117l7.02 -0.247c-1.339,3.494 -2.723,7.157 -4.135,10.981 -1.425,3.833 -2.885,7.706 -4.391,11.615 -1.508,3.906 -3.014,7.657 -4.515,11.235 -1.506,3.575 -2.93,6.862 -4.265,9.858l-50.163 112.842 -28.094 0z"></path>   <polygon class="fil0" points="505.395,175.253 505.395,26.463 446.2,26.463 446.2,0.499 592.929,0.499 592.929,26.463 532.48,26.463 532.48,175.253 "></polygon>   <path class="fil0" d="M660.895 72.65l102.583 0 0 25.959 -102.583 0 0 -25.959zm-13.792 102.604l0 -174.753 130.174 0 0 25.963 -103.086 0 0 122.826 103.086 0 0 25.964 -130.174 0z"></path>   <path class="fil0" d="M966.643 175.253l-53.178 -78.889 28.346 -6.24 58.189 85.376 -33.357 -0.247zm-95.06 -90.876l60.194 0c5.681,0 10.87,-1.328 15.552,-3.993 4.679,-2.655 8.441,-6.241 11.288,-10.732 2.837,-4.491 4.261,-9.398 4.261,-14.728 0,-5.493 -1.545,-10.36 -4.638,-14.604 -3.095,-4.248 -7.239,-7.617 -12.415,-10.113 -5.186,-2.499 -10.956,-3.744 -17.307,-3.744l-56.935 0 0 57.914zm-27.088 90.876l0 -174.754 90.293 0c10.2,0 19.565,2.415 28.09,7.242 8.529,4.829 15.382,11.356 20.572,19.592 5.178,8.245 7.774,17.519 7.774,27.84 0,9.988 -2.722,19.184 -8.156,27.581 -5.433,8.412 -12.623,15.108 -21.566,20.104 -8.947,4.988 -18.773,7.487 -29.469,7.487l-60.45 0 0 64.908 -27.088 0z"></path>  </g> </g></svg>