<svg xmlns="http://www.w3.org/2000/svg" viewBox="280 240 520 600">
  <path fill="#d06746" d="M344.71,668.8v-365H400L551.73,514.45l-22.94-.52L681.05,303.78h54.24v365H679V516q0-44.83,2.08-82.65A727.89,727.89,0,0,1,689.4,357l6.26,20.85L556.43,564H522L384.87,378.35,390.6,357A691.65,691.65,0,0,1,399,432.06Q401,469.6,401,516V668.8Zm195,107.42q-17.73,0-26.86-9.13t-9.12-24.77a34.13,34.13,0,0,1,9.12-24q9.12-9.92,26.86-9.91t26.85,9.13q9.12,9.11,9.13,24.76a34.17,34.17,0,0,1-9.13,24Q557.47,776.21,539.74,776.22Z"/>
</svg>
