<svg id="Layer_1" data-name="Layer 1" xmlns="http://www.w3.org/2000/svg" viewBox="0 0 1080 540">
  <defs>
    <style>
      .cls-1 {
        fill: #d06746;
      }
    </style>
  </defs>
  <title>MATER_Logotip</title>
  <g>
    <path class="cls-1" d="M156.5,337.24V202.57h20.39l56,77.72-8.47-.19,56.18-77.53h20V337.24H279.81V280.87q0-16.55.77-30.49a267.17,267.17,0,0,1,3.08-28.18l2.31,7.69L234.6,298.57H221.9l-50.59-68.49,2.11-7.88a252.85,252.85,0,0,1,3.08,27.7q.76,13.85.77,31v56.37Z"/>
    <path class="cls-1" d="M340.6,337.24l59.64-134.67h22.89l59.44,134.67h-22.5l-38.86-87.73a60,60,0,0,1-3-6.73l-3.46-8.95q-1.83-4.71-3.46-9.23t-2.79-7.79l5.39-.19q-1.54,4-3.18,8.46T407.36,234q-1.74,4.51-3.47,8.65t-3.27,7.6l-38.47,87Zm26.17-32.32,7.88-20h71.76l5.77,20Z"/>
    <path class="cls-1" d="M544.14,337.24V222.58H498.73v-20H611.28v20H564.91V337.24Z"/>
    <path class="cls-1" d="M652.83,337.24V202.57h99.84v20H673.61v94.65h79.06v20Zm10.58-59.06v-20h78.68v20Z"/>
    <path class="cls-1" d="M804.23,337.24V202.57h69.26A42.81,42.81,0,0,1,895,208.15a44,44,0,0,1,15.78,15.1,39.63,39.63,0,0,1,6,21.45A38.55,38.55,0,0,1,910.52,266,46.28,46.28,0,0,1,894,281.45a45.51,45.51,0,0,1-22.6,5.77H825v50Zm20.78-70h46.16a23.54,23.54,0,0,0,11.93-3.08,24.35,24.35,0,0,0,8.66-8.27A20.87,20.87,0,0,0,895,244.51a18.68,18.68,0,0,0-3.56-11.25,25,25,0,0,0-9.52-7.8,30.13,30.13,0,0,0-13.27-2.88H825Zm72.91,70-40.79-60.79,21.74-4.81,44.63,65.79Z"/>
  </g>
</svg>
